<?xml version="1.0" encoding="utf-8"?>
<!-- Generator: Adobe Illustrator 17.1.0, SVG Export Plug-In . SVG Version: 6.00 Build 0)  -->
<!DOCTYPE svg PUBLIC "-//W3C//DTD SVG 1.1//EN" "http://www.w3.org/Graphics/SVG/1.1/DTD/svg11.dtd">
<svg version="1.1" xmlns="http://www.w3.org/2000/svg" xmlns:xlink="http://www.w3.org/1999/xlink" x="0px" y="0px"
	 viewBox="0 0 597.578 597.578" enable-background="new 0 0 597.578 597.578" xml:space="preserve">
<g id="Layer_2">
	<path fill="#667030" d="M597.578,553.244c0,24.485-19.849,44.333-44.333,44.333H44.333C19.849,597.578,0,577.729,0,553.244V44.333
		C0,19.849,19.849,0,44.333,0h508.911c24.485,0,44.333,19.849,44.333,44.333V553.244z"/>
	<path fill="#FFFFFF" d="M331.763,597.099V582.32V298.31h-51.722v-82.832l51.722-0.167c0,0-19.94-141.58,77.583-176.075
		c77.24-27.321,136.695,0,136.695,0l-22.167,88.667c0,0-99.75-40.639-83.125,83.125h90.514L520.18,298.31h-77.584v298.789"/>
</g>
<g id="Layer_1">
</g>
</svg>
