<?xml version="1.0" encoding="utf-8"?>
<!-- Generator: Adobe Illustrator 17.1.0, SVG Export Plug-In . SVG Version: 6.00 Build 0)  -->
<!DOCTYPE svg PUBLIC "-//W3C//DTD SVG 1.1//EN" "http://www.w3.org/Graphics/SVG/1.1/DTD/svg11.dtd">
<svg version="1.1" xmlns="http://www.w3.org/2000/svg" xmlns:xlink="http://www.w3.org/1999/xlink" x="0px" y="0px"
	 viewBox="0 0 292.664 184" enable-background="new 0 0 292.664 184" xml:space="preserve">
<g id="Layer_1">
</g>
<g id="Layer_2">
	<path fill="#656F15" d="M222.34,118.5c-10.916,30.874-40.346,53-74.958,53s-64.043-22.126-74.958-53H59.262
		c11.379,37.891,46.522,65.5,88.119,65.5s76.74-27.609,88.119-65.5H222.34z"/>
	<path fill="#656F15" d="M147.381,12.5c34.612,0,64.043,22.126,74.958,53H235.5C224.121,27.609,188.978,0,147.381,0
		s-76.74,27.609-88.119,65.5h13.161C83.339,34.626,112.769,12.5,147.381,12.5z"/>
	<path fill="#C4792A" stroke="#C4792A" stroke-miterlimit="10" d="M147.381,16c-32.652,0-60.487,20.595-71.243,49.5h142.486
		C207.868,36.595,180.033,16,147.381,16z"/>
	<path fill="#C4792A" stroke="#C4792A" stroke-miterlimit="10" d="M76.138,118.5c10.756,28.905,38.591,49.5,71.243,49.5
		s60.487-20.595,71.243-49.5H76.138z"/>
	<path fill="#9A3820" d="M97.31,82.648c0-0.845-0.802-1.325-2.404-1.442c-0.467-0.028-0.934-0.044-1.399-0.044l-1.923,0.044
		l-1.442,7.125c1.165-0.116,2.637-0.859,4.415-2.229C96.392,84.703,97.31,83.553,97.31,82.648z"/>
	<path fill="#9A3820" d="M178.003,92.44c-0.874-0.466-1.821-0.699-2.841-0.699h-0.394c-0.117,0-0.233,0.015-0.35,0.044
		c-0.117,0.729-0.227,1.37-0.328,1.923c-0.103,0.554-0.196,1.086-0.284,1.596c-0.087,0.51-0.183,1.042-0.284,1.596
		c-0.103,0.554-0.212,1.195-0.328,1.923c2.652-0.291,4.518-1.034,5.596-2.229c0.466-0.524,0.699-1.106,0.699-1.748
		c0-0.641-0.139-1.144-0.415-1.508C178.797,92.973,178.441,92.674,178.003,92.44z"/>
	<path fill="#9A3820" d="M151.295,81.206c-0.467-0.028-0.934-0.044-1.399-0.044l-1.923,0.044l-1.442,7.125
		c1.165-0.116,2.637-0.859,4.415-2.229c1.836-1.398,2.754-2.549,2.754-3.453C153.7,81.804,152.898,81.323,151.295,81.206z"/>
	<path fill="#9A3820" d="M178.135,81.119c-0.467-0.088-0.875-0.132-1.225-0.132h-0.48c-0.059,0.321-0.124,0.707-0.197,1.159
		c-0.072,0.452-0.152,0.918-0.24,1.398c-0.087,0.48-0.183,0.962-0.284,1.442c-0.103,0.48-0.182,0.911-0.24,1.29
		c3.643-0.816,5.464-1.821,5.464-3.017C180.932,82.124,179.999,81.41,178.135,81.119z"/>
	<path fill="#9A3820" d="M55.082,92.44c-0.874-0.466-1.821-0.699-2.841-0.699h-0.394c-0.117,0-0.233,0.015-0.35,0.044
		c-0.117,0.729-0.227,1.37-0.328,1.923c-0.103,0.554-0.196,1.086-0.284,1.596c-0.087,0.51-0.183,1.042-0.284,1.596
		c-0.103,0.554-0.212,1.195-0.328,1.923c2.652-0.291,4.518-1.034,5.596-2.229c0.466-0.524,0.699-1.106,0.699-1.748
		c0-0.641-0.139-1.144-0.415-1.508C55.876,92.973,55.52,92.674,55.082,92.44z"/>
	<path fill="#9A3820" d="M55.214,81.119c-0.467-0.088-0.875-0.132-1.225-0.132h-0.48c-0.059,0.321-0.124,0.707-0.197,1.159
		c-0.072,0.452-0.152,0.918-0.24,1.398c-0.087,0.48-0.183,0.962-0.284,1.442c-0.103,0.48-0.182,0.911-0.24,1.29
		c3.643-0.816,5.464-1.821,5.464-3.017C58.011,82.124,57.078,81.41,55.214,81.119z"/>
	<polygon fill="#9A3820" points="278.735,67.75 235.688,67.75 65.938,67.75 16.027,67.75 30.678,92 16.027,116.25 278.735,116.25 
		265.095,92 	"/>
	<path fill="#9A3820" d="M61.006,99.872c-0.511,1.049-1.195,1.996-2.055,2.841c-0.86,0.846-1.865,1.589-3.017,2.229
		c-1.151,0.642-2.368,1.181-3.65,1.617c-2.506,0.874-5.07,1.312-7.693,1.312c-1.107,0-2.142-0.087-3.104-0.263
		c1.428-5.216,2.564-10.476,3.41-15.78c0.845-5.304,1.661-10.637,2.447-15.999c4.08-0.845,7.417-1.268,10.011-1.268
		c3.06,0,5.187,1.05,6.382,3.147c0.466,0.787,0.699,1.756,0.699,2.907s-0.182,2.223-0.546,3.213
		c-0.365,0.991-0.838,1.895-1.421,2.71c-1.195,1.633-2.623,2.754-4.284,3.366c2.39,1.457,3.585,3.716,3.585,6.775
		C61.771,97.759,61.515,98.822,61.006,99.872z"/>
	<path fill="#9A3820" d="M77.53,103.325c-0.772,1.195-1.669,2.186-2.688,2.973c-1.953,1.456-4.212,2.186-6.775,2.186
		c-1.574,0-2.929-0.438-4.065-1.312c-1.283-1.049-1.924-2.433-1.924-4.153c0-0.115,0-0.232,0-0.35c0-0.116,0.036-0.509,0.109-1.18
		c0.072-0.67,0.24-1.872,0.503-3.606c0.263-1.733,0.547-3.541,0.853-5.421c0.306-1.879,0.634-3.766,0.983-5.66
		s0.67-3.613,0.962-5.158c0.641-3.322,1.02-5.246,1.137-5.771c0.641-0.058,1.391-0.131,2.251-0.219
		c0.859-0.087,1.705-0.167,2.535-0.24c0.831-0.072,1.697-0.153,2.601-0.24c-0.758,3.584-1.354,6.426-1.792,8.524
		c-0.437,2.098-0.787,3.773-1.049,5.026c-0.263,1.254-0.496,2.404-0.699,3.453c-0.467,2.216-0.772,3.658-0.918,4.328
		c-0.438,2.011-0.656,3.308-0.656,3.891s0.124,1.027,0.372,1.333c0.247,0.306,0.582,0.459,1.005,0.459s0.802-0.203,1.137-0.612
		c0.335-0.407,0.612-0.889,0.831-1.442c0.218-0.553,0.386-1.121,0.502-1.705c0.116-0.582,0.241-1.172,0.372-1.77
		s0.306-1.428,0.524-2.492c0.219-1.063,0.438-2.171,0.655-3.322c0.219-1.15,0.444-2.323,0.678-3.519
		c0.612-3.061,1.326-6.936,2.143-11.628l6.775-0.438l-0.219,1.137c-0.35,1.836-0.736,3.956-1.158,6.36
		c-0.423,2.404-0.809,4.48-1.158,6.229c-0.904,4.546-1.574,7.773-2.012,9.683C78.907,100.578,78.301,102.131,77.53,103.325z"/>
	<path fill="#9A3820" d="M93.07,106.997c-2.244-7.373-3.41-11.584-3.497-12.633l-0.568,0.175c-0.233,1.341-0.583,3.206-1.049,5.595
		c-0.467,2.39-0.831,4.299-1.093,5.727l-7.257,1.88c3.03-14.658,4.881-25.062,5.552-31.211c3.38-1.05,7.169-1.574,11.365-1.574
		c3.147,0,5.012,1.093,5.596,3.278c0.175,0.671,0.262,1.502,0.262,2.492c0,0.991-0.204,2.062-0.612,3.213s-0.961,2.251-1.66,3.3
		c-1.458,2.128-3.25,3.76-5.377,4.896c1.137,2.447,2.148,4.758,3.038,6.928c0.889,2.172,1.639,4,2.251,5.486L93.07,106.997z"/>
	<path fill="#9A3820" d="M117.221,104.243c-1.385,1.516-2.878,2.652-4.48,3.409c-1.603,0.758-3.038,1.137-4.306,1.137
		s-2.397-0.24-3.388-0.722c-0.991-0.48-1.851-1.216-2.579-2.207c-1.574-2.099-2.36-5.049-2.36-8.852
		c0-3.804,0.553-7.133,1.661-9.989c1.106-2.855,2.498-5.237,4.175-7.146c1.675-1.908,3.481-3.329,5.42-4.262
		c1.938-0.933,3.621-1.399,5.049-1.399s2.579,0.212,3.453,0.634c0.875,0.423,1.588,0.983,2.143,1.684
		c1.106,1.341,1.661,3.146,1.661,5.42l-6.164,1.181c-0.496-2.215-1.355-3.322-2.579-3.322c-0.758,0-1.581,0.532-2.47,1.596
		c-0.89,1.063-1.727,2.426-2.514,4.087c-1.777,3.876-2.725,7.679-2.841,11.409c0,1.865,0.276,3.19,0.83,3.978
		s1.194,1.181,1.924,1.181c0.728,0,1.413-0.153,2.055-0.459c0.641-0.307,1.209-0.722,1.704-1.246
		c1.165-1.224,1.777-2.667,1.836-4.328l-4.765,0.7l0.831-4.415c4.108-0.524,7.795-1.078,11.06-1.661
		c-0.205,3.031-0.803,5.676-1.793,7.934C119.792,100.841,118.605,102.728,117.221,104.243z"/>
	<path fill="#9A3820" d="M135.383,105.511l-14.469,2.229l5.857-31.823l14.163-1.224c-0.204,0.67-0.379,1.318-0.524,1.944
		c-0.146,0.628-0.292,1.246-0.438,1.858s-0.262,1.151-0.35,1.617c-0.874,0.088-2.069,0.131-3.584,0.131h-3.017l-1.573,8.044
		c1.603-0.088,2.943-0.146,4.021-0.175s1.777-0.059,2.098-0.088c-0.116,0.846-0.226,1.669-0.327,2.47
		c-0.103,0.802-0.227,1.625-0.372,2.47c-0.32,0.029-0.816,0.052-1.486,0.065c-0.67,0.016-1.37,0.037-2.098,0.065
		c-0.729,0.03-1.545,0.06-2.448,0.088l-1.53,8.262l6.514-1.049L135.383,105.511z"/>
	<path fill="#9A3820" d="M158.158,83.938c-0.408,1.151-0.961,2.251-1.66,3.3c-1.458,2.128-3.25,3.76-5.377,4.896
		c1.137,2.447,2.148,4.758,3.038,6.928c0.889,2.172,1.639,4,2.251,5.486l-6.95,2.448c-2.244-7.373-3.41-11.584-3.497-12.633
		l-0.568,0.175c-0.233,1.341-0.583,3.206-1.049,5.595c-0.467,2.39-0.831,4.299-1.093,5.727l-7.257,1.88
		c3.03-14.658,4.881-25.062,5.552-31.211c3.38-1.05,7.169-1.574,11.365-1.574c3.147,0,5.012,1.093,5.596,3.278
		c0.175,0.671,0.262,1.502,0.262,2.492C158.77,81.717,158.566,82.787,158.158,83.938z"/>
	<path fill="#9A3820" d="M181.872,102.713c-0.86,0.846-1.865,1.589-3.017,2.229c-1.151,0.642-2.368,1.181-3.65,1.617
		c-2.506,0.874-5.07,1.312-7.693,1.312c-1.107,0-2.142-0.087-3.104-0.263c1.428-5.216,2.564-10.476,3.41-15.78
		c0.845-5.304,1.661-10.637,2.447-15.999c4.08-0.845,7.417-1.268,10.011-1.268c3.06,0,5.187,1.05,6.382,3.147
		c0.466,0.787,0.699,1.756,0.699,2.907s-0.182,2.223-0.546,3.213c-0.365,0.991-0.838,1.895-1.421,2.71
		c-1.195,1.633-2.623,2.754-4.284,3.366c2.39,1.457,3.585,3.716,3.585,6.775c0,1.078-0.256,2.142-0.765,3.191
		C183.416,100.921,182.732,101.868,181.872,102.713z"/>
	<path fill="#9A3820" d="M199.949,107.216c-2.012,0.262-3.045,0.408-3.104,0.437c0.122-0.443,0.24-0.905,0.359-1.358l-1.233-0.04
		c-3.061,0-6.105,0.277-9.137,0.83c-0.99,0.204-1.895,0.438-2.71,0.7c0.699-5.392,1.624-11.06,2.776-17.005
		c1.15-5.945,2.134-10.942,2.95-14.993l7.868-1.05c-2.71,11.482-4.291,18.534-4.743,21.157s-0.75,4.459-0.896,5.508
		c1.107-0.087,2.651-0.131,4.634-0.131c0.058,1.137,0.146,2.062,0.262,2.775c0.116,0.715,0.197,1.239,0.24,1.574
		c0.021,0.163,0.041,0.297,0.058,0.409c0.768-2.932,1.486-6.068,2.15-9.436c1.807-9.121,3.089-15.867,3.847-20.238l6.994-1.094
		c-3.322,16.903-5.348,27.424-6.076,31.562C203.372,106.822,201.959,106.953,199.949,107.216z"/>
	<path fill="#9A3820" d="M220.362,90.43c-1.166,7.344-1.982,12.691-2.448,16.043l-8.043,1.268c2.36-11.074,3.948-19.743,4.765-26.01
		c-0.699-0.087-1.398-0.116-2.098-0.087c-0.7,0.029-1.399-0.059-2.099-0.263l0.219-5.727c1.515,0.117,3.045,0.175,4.59,0.175
		c4.079,0,8.058-0.247,11.934-0.743l-0.48,2.404c-0.146,0.671-0.284,1.363-0.416,2.077c-0.131,0.714-0.255,1.333-0.371,1.857
		c-0.671,0.175-1.341,0.299-2.011,0.371c-0.671,0.073-1.326,0.168-1.968,0.284C221.41,84.325,220.886,87.107,220.362,90.43z"/>
	<path fill="#9A3820" d="M244.71,82.212l-12.196,17.397c0.962,0,3.948-0.175,8.961-0.524l-0.131,6.819
		c-2.594,0-5.668,0.131-9.224,0.394c-4.896,0.408-8.13,0.743-9.704,1.005l0.044-6.557l12.721-17.311
		c-1.604,0-4.065,0.277-7.388,0.83l-1.049,0.132l0.83-7.038l18.315-1.312L244.71,82.212z"/>
	<path fill="#FFFFFF" d="M174.106,35.681v3.163c0,2.996,2.504,5.499,5.49,5.257c1.431-0.116,2.604-0.79,2.692-2.649
		c0.089-1.887-0.946-3.653-2.521-4.696l-3.433-2.272C175.38,33.852,174.106,34.537,174.106,35.681z"/>
	<path fill="#FFFFFF" d="M154.504,43.241l2.987-1.039c2.829-0.984,4.371-4.172,3.162-6.913c-0.58-1.314-1.601-2.2-3.387-1.672
		c-1.812,0.536-3.14,2.094-3.607,3.925l-1.018,3.988C152.358,42.639,153.422,43.617,154.504,43.241z"/>
	<path fill="#FFFFFF" d="M168.647,30.47l0.327-3.146c0.31-2.98-1.922-5.728-4.917-5.797c-1.436-0.033-2.672,0.516-2.952,2.356
		c-0.284,1.868,0.563,3.732,2.022,4.932l3.179,2.615C167.191,32.158,168.529,31.609,168.647,30.47z"/>
	<path fill="#FFFFFF" d="M148.968,20.02l-3.065-0.782c-2.903-0.74-5.947,1.068-6.451,4.021c-0.242,1.416,0.122,2.718,1.902,3.263
		c1.807,0.553,3.774-0.014,5.174-1.283l3.05-2.765C150.426,21.706,150.078,20.302,148.968,20.02z"/>
	<path fill="#FFFFFF" d="M132.291,34.188v3.163c0,2.996,2.504,5.499,5.49,5.257c1.431-0.116,2.604-0.79,2.692-2.649
		c0.089-1.887-0.946-3.653-2.521-4.696l-3.433-2.272C133.565,32.359,132.291,33.044,132.291,34.188z"/>
	<path fill="#FFFFFF" d="M120.439,26.651l-2.933,1.185c-2.777,1.123-4.16,4.382-2.817,7.06c0.644,1.284,1.708,2.118,3.465,1.503
		c1.783-0.624,3.033-2.246,3.409-4.098l0.82-4.034C122.612,27.146,121.5,26.222,120.439,26.651z"/>
	<text transform="matrix(1 0 0 1 46.5721 107.8711)" fill="#FFFFFF" font-family="'Bangers-Regular'" font-size="44.6582">burger blitZ</text>
</g>
</svg>
