<?xml version="1.0" encoding="utf-8"?>
<!-- Generator: Adobe Illustrator 17.1.0, SVG Export Plug-In . SVG Version: 6.00 Build 0)  -->
<!DOCTYPE svg PUBLIC "-//W3C//DTD SVG 1.1//EN" "http://www.w3.org/Graphics/SVG/1.1/DTD/svg11.dtd">
<svg version="1.1" id="Layer_1" xmlns="http://www.w3.org/2000/svg" xmlns:xlink="http://www.w3.org/1999/xlink" x="0px" y="0px"
	 viewBox="0 0 575.297 575.413" enable-background="new 0 0 575.297 575.413" xml:space="preserve">
<g>
	<rect x="111.823" y="63.227" fill="#FFFFFF" width="353.791" height="448.051"/>
	<path fill="#656F15" d="M0,476.679V68.773C0,30.791,30.791,0,68.773,0h437.752c37.982,0,68.773,30.791,68.773,68.773v407.907
		c0,54.529-44.204,98.733-98.733,98.733H98.733C44.204,575.413,0,531.208,0,476.679z M260.174,355.575
		c5.214,4.959,9.593,10.19,14.961,14.045c23.478,16.859,49.528,17.966,76.402,10.863c39.831-10.528,66.074-37.018,83.667-73.059
		c10.301-21.104,15.879-43.559,18.197-66.935c1.647-16.613,2.694-33.266-0.63-49.642c-9.614-47.36-37.194-81.196-80.206-102.253
		c-34.648-16.962-71.467-19.517-109.184-13.736c-45.426,6.963-83.789,26.742-111.767,63.743
		c-30.829,40.773-39.635,86.092-23.642,135.178c7.059,21.666,20.649,38.314,41.996,47.705c7.408,3.259,12.363,0.826,14.457-6.921
		c1.695-6.271,2.82-12.713,4.804-18.884c1.644-5.112,0.125-8.928-2.835-12.936c-3.535-4.788-7.108-9.674-9.749-14.974
		c-8.872-17.805-8.937-36.695-5.5-55.728c4.906-27.17,17.065-50.619,38.499-68.294c35.842-29.555,76.932-35.395,120.568-22.927
		c38.042,10.87,60.71,41.283,62.666,79.753c0.762,14.993-0.261,30.263-2.256,45.168c-3.401,25.405-11.459,49.465-27.734,69.771
		c-14.049,17.529-31.653,28.212-55.42,24.715c-21.102-3.105-36.095-24.165-31.014-44.671c3.572-14.416,7.99-28.623,12.092-42.906
		c4.98-17.342,10.788-34.456,9.652-52.991c-1.083-17.684-14.758-31.341-32.334-31.44c-17.279-0.097-29.525,8.813-37.957,22.822
		c-14.833,24.644-13.898,50.644-5.015,77.053c0.822,2.443,1.014,5.445,0.45,7.951c-4.195,18.67-8.854,37.236-12.988,55.919
		c-7.183,32.463-15.243,64.794-20.72,97.551c-3.788,22.651-1.666,45.852,2.23,68.621c0.33,1.927,1.948,3.635,2.968,5.444
		c1.795-1.111,4.237-1.799,5.286-3.4c10.323-15.752,20.948-31.345,30.438-47.596c11.787-20.187,15.725-43.188,21.498-65.48
		C254.778,376.587,257.474,366.063,260.174,355.575z"/>
</g>
</svg>
