<?xml version="1.0" encoding="utf-8"?>
<!-- Generator: Adobe Illustrator 17.1.0, SVG Export Plug-In . SVG Version: 6.00 Build 0)  -->
<!DOCTYPE svg PUBLIC "-//W3C//DTD SVG 1.1//EN" "http://www.w3.org/Graphics/SVG/1.1/DTD/svg11.dtd">
<svg version="1.1" id="Layer_1" xmlns="http://www.w3.org/2000/svg" xmlns:xlink="http://www.w3.org/1999/xlink" x="0px" y="0px"
	 viewBox="0 90 612 612" enable-background="new 0 90 612 612" xml:space="preserve">
<g>
	<path fill="#FFFFFF" d="M474,90H138C46,90,0,151.2,0,226.8V560c0,75.5,61.8,136.8,138,136.8h336c76.2,0,138-61.2,138-136.8V226.8
		C612,151.2,550.2,90,474,90z"/>
	<g>
		<path fill="#656F15" d="M191.5,290.7c28.3-29.9,68.4-48.5,112.8-48.5s84.5,18.6,112.8,48.5H612v-72.9C612,132,554.8,90,484.2,90
			H163.9v150.5h-25.1V90h-11c-1.9,0-3.8,0.1-5.7,0.1v150.3H97V93.8c-5.7,1.4-11.3,3.2-16.7,5.4v141.3H55.2V112.7
			C21.9,135.7,0,174.2,0,217.8v72.9H191.5L191.5,290.7z M449.8,167c0-13,10.5-23.5,23.5-23.5h60c13,0,23.5,10.5,23.5,23.5v60
			c0,13-10.5,23.5-23.5,23.5h-60c-13,0-23.5-10.5-23.5-23.5V167z"/>
		<path fill="#656F15" d="M434.4,312.4c16.1,24.5,25.5,53.8,25.5,85.3c0,85.9-69.6,155.5-155.5,155.5s-155.5-69.6-155.5-155.5
			c0-31.5,9.4-60.8,25.4-85.3H0v261.8C0,644.8,57.2,702,127.8,702h356.4c70.6,0,127.8-57.2,127.8-127.8V312.4H434.4z"/>
	</g>
	<circle fill="none" stroke="#656F15" stroke-width="21" stroke-miterlimit="10" cx="306" cy="396" r="103.7"/>
</g>
</svg>
