<?xml version="1.0" encoding="utf-8"?>
<!-- Generator: Adobe Illustrator 17.1.0, SVG Export Plug-In . SVG Version: 6.00 Build 0)  -->
<!DOCTYPE svg PUBLIC "-//W3C//DTD SVG 1.1//EN" "http://www.w3.org/Graphics/SVG/1.1/DTD/svg11.dtd">
<svg version="1.1" id="Layer_1" xmlns="http://www.w3.org/2000/svg" xmlns:xlink="http://www.w3.org/1999/xlink" x="0px" y="0px"
	 viewBox="0 90 611.9 612" enable-background="new 0 90 611.9 612" xml:space="preserve">
<path fill="#656F15" d="M544.8,702H67.2C30.1,702,0,671.9,0,634.8V157.2C0,120.1,30.1,90,67.2,90h477.5c37.1,0,67.2,30.1,67.2,67.2
	v477.5C612,671.9,581.9,702,544.8,702z"/>
<g>
	<circle fill="#FFFFFF" cx="213.3" cy="229.7" r="53"/>
	<circle fill="#FFFFFF" cx="430.7" cy="343.6" r="53"/>
	<path fill="#FFFFFF" d="M266.3,229.7c0,2.7-0.2,5.4-0.6,8c-3.9,25.5-25.8,45-52.4,45c-29.3,0-53-23.7-53-53s23.7-53,53-53
		S266.3,200.4,266.3,229.7z"/>
	<circle fill="#FFFFFF" cx="421.1" cy="558.2" r="53"/>
	<path fill="#FFFFFF" d="M265.7,447V221.7l-52.4-20.8l-53,28.8c-8.1,301.9,17.7,301.4,65.2,351.6c47.6,50.3,195.6,29.9,195.6,29.9
		l9.5-29.9l-6.8-76.1c-104.8,8.2-141.5-25.4-153.3-42.3C267.3,458.3,265.7,452.7,265.7,447z"/>
	<rect x="241.8" y="290.6" fill="#FFFFFF" width="188.9" height="106"/>
</g>
<g id="Layer_1_1_">
</g>
</svg>
