<?xml version="1.0" encoding="utf-8"?>
<!-- Generator: Adobe Illustrator 17.1.0, SVG Export Plug-In . SVG Version: 6.00 Build 0)  -->
<!DOCTYPE svg PUBLIC "-//W3C//DTD SVG 1.1//EN" "http://www.w3.org/Graphics/SVG/1.1/DTD/svg11.dtd">
<svg version="1.1" id="Layer_1" xmlns="http://www.w3.org/2000/svg" xmlns:xlink="http://www.w3.org/1999/xlink" x="0px" y="0px"
	 viewBox="0 90 612 612" enable-background="new 0 90 612 612" xml:space="preserve">
<path fill="#656F15" d="M612,656.6c0,25.1-20.3,45.4-45.4,45.4H45.4C20.3,702,0,681.7,0,656.6V135.4C0,110.3,20.3,90,45.4,90h521.2
	c25.1,0,45.4,20.3,45.4,45.4L612,656.6L612,656.6z"/>
<path fill="#FFFFFF" d="M339.8,701.5v-15.1V395.5h-53v-84.8l53-0.2c0,0-20.4-145,79.5-180.3c79.1-28,140,0,140,0L536.6,221
	c0,0-102.1-41.6-85.1,85.1h92.7l-11.3,89.4h-79.5v306"/>
<g id="Layer_1_1_">
</g>
</svg>
